<svg id="Capa_1" data-name="Capa 1" xmlns="http://www.w3.org/2000/svg" viewBox="0 0 408.11 276.85"><defs><style>.cls-1{fill:#fff0d3;}</style></defs><path d="M203.17,342.48c-76.33,0-138.43-62.09-138.43-138.42S126.84,65.63,203.17,65.63,341.6,127.73,341.6,204.06,279.5,342.48,203.17,342.48Zm0-266.85A128.58,128.58,0,0,0,74.74,204.06c0,70.81,57.62,128.42,128.43,128.42a128.43,128.43,0,1,0,0-256.85ZM35.28,336.75H21.13a5,5,0,0,1-5-5V176.16C6.6,171.92,0,162.82,0,152.31V82.11a5,5,0,0,1,10,0v65.2h5.47V82.11a5,5,0,0,1,10,0v65.2h5.47V82.11a5,5,0,0,1,10,0v65.2h5.47V82.11a5,5,0,1,1,10,0v70.2c0,10.51-6.6,19.61-16.13,23.85V331.75A5,5,0,0,1,35.28,336.75Zm-9.15-10h4.15v-148H26.13ZM10.87,157.31c2.35,6.6,9.23,11.39,17.34,11.39s15-4.79,17.33-11.39ZM384.69,335.46h-14.6a5,5,0,0,1-5-5V79.24a5,5,0,0,1,8.69-3.37C374.91,77.1,401.31,106.44,406,148c4.58,40.44.21,107.15,0,110a5,5,0,0,1-5,4.67H389.69v67.8A5,5,0,0,1,384.69,335.46Zm-9.6-10h4.6v-62.8h-4.6Zm0-72.8h21.26c.92-16.09,3.54-70-.26-103.51-2.67-23.58-13.23-43.26-21-55V252.66Zm-171.92,46.4a95,95,0,1,1,95-95A95.11,95.11,0,0,1,203.17,299.06Zm0-180a85,85,0,1,0,85,85A85.11,85.11,0,0,0,203.17,119.05ZM104.81,141a5,5,0,0,1-4.26-7.62c16.54-26.88,47.1-41.17,48.39-41.77a5,5,0,0,1,4.19,9.08h0c-.29.14-29.14,13.68-44.06,37.93A5,5,0,0,1,104.81,141Z" transform="translate(0 -65.63)"/><path class="cls-1" d="M223.42,177c6.34,2.73,2.45,12.42.75,14.42-4.78,5.67,3.48,9.84,3.33,13.13-.75,16.54-4.41,28.28-20.42,27.52a20.91,20.91,0,0,0-15.75,1.22c-6.57,3.21-13.57-.14-18.5-2.47-12.9-6.1-14.47-26.65-14.66-29.75,2.63-6-2-15,13.47-21.71,13-5.62,9.71-14.42,13.28-16.71,1.09-.7,19.34-14.28,25.88-2.5C215.11,168,221.64,176.27,223.42,177Z" transform="translate(0 -65.63)"/></svg>