<svg id="Layer_1" data-name="Layer 1" xmlns="http://www.w3.org/2000/svg" xmlns:xlink="http://www.w3.org/1999/xlink" viewBox="0 0 372.75 388.05"><defs><style>.cls-1{fill:#d1ae6d;}.cls-2{fill:#c8a769;}.cls-3{fill:#f39117;}.cls-4{fill:#f49739;}.cls-5{fill:#fff4ab;}.cls-6{stroke:#1d1d1b;stroke-miterlimit:10;stroke-width:2px;fill:url(#radial-gradient);}.cls-6,.cls-7{opacity:0.17;}.cls-7{fill:url(#radial-gradient-2);}</style><radialGradient id="radial-gradient" cx="452.74" cy="408.5" r="109.46" gradientTransform="translate(-359.69 -470.19) scale(1.21 1.89)" gradientUnits="userSpaceOnUse"><stop offset="0.05" stop-color="#1d1d1b" stop-opacity="0.99"/><stop offset="0.27" stop-color="#1a1a19" stop-opacity="0.99"/><stop offset="0.4" stop-color="#121211"/><stop offset="0.51" stop-color="#030303"/><stop offset="0.53"/><stop offset="0.93" stop-color="#777" stop-opacity="0.53"/><stop offset="1" stop-color="#fff" stop-opacity="0"/></radialGradient><radialGradient id="radial-gradient-2" cx="452.1" cy="316.57" r="109.46" gradientTransform="translate(-313.59 -260.16) scale(1.1 1.2)" gradientUnits="userSpaceOnUse"><stop offset="0.45"/><stop offset="0.92" stop-color="#777" stop-opacity="0.53"/><stop offset="1" stop-color="#fff" stop-opacity="0"/></radialGradient></defs><ellipse class="cls-1" cx="185.6" cy="114.04" rx="182.68" ry="28.96"/><ellipse class="cls-2" cx="185.85" cy="299.84" rx="185.37" ry="34.88"/><path class="cls-3" d="M631.14,412.13c-16.14,55.87-59,72.12-59,72.12-.1,5.78-184,22.58-250.91-1.47-8.77-3.45-38.6-17.34-55.71-69C264,408.89,260,434.33,447.64,442,611.14,442,631.14,412.13,631.14,412.13Z" transform="translate(-261.79 -107.31)"/><path class="cls-4" d="M264.71,221.13c30.89-163,352.25-140,365.36,0-41.36-11.75-105.37-18.12-178.51-19C338.5,203.73,273.32,209.58,264.71,221.13Z" transform="translate(-261.79 -107.31)"/><path class="cls-5" d="M328.38,159.55c1.06-3.86,1.81-7.7-.29-11.59-3.17-5.27-5.57-3.85-7.59.86C321.41,152.35,323.7,156,328.38,159.55Z" transform="translate(-261.79 -107.31)"/><path class="cls-5" d="M360.23,149.51c-1.52-3.71-3.27-7.21-7.31-9-5.73-2.24-6.75.35-5.48,5.31C350.32,148.06,354.33,149.52,360.23,149.51Z" transform="translate(-261.79 -107.31)"/><path class="cls-5" d="M379.29,169.26c3.41-2.1,6.57-4.4,7.69-8.68,1.28-6-1.44-6.61-6.13-4.54C379.1,159.24,378.32,163.44,379.29,169.26Z" transform="translate(-261.79 -107.31)"/><path class="cls-5" d="M396.17,178.77c3.62,1.71,7.28,3.1,11.47,1.7,5.74-2.22,4.74-4.83.45-7.62C404.45,173.14,400.51,174.78,396.17,178.77Z" transform="translate(-261.79 -107.31)"/><path class="cls-5" d="M527.05,166c3.93-.76,7.71-1.79,10.26-5.39,3.33-5.18,1-6.7-4.13-6.42C530.42,156.58,528.2,160.23,527.05,166Z" transform="translate(-261.79 -107.31)"/><path class="cls-5" d="M545.23,144.16c1.91-3.52,3.52-7.09,2.36-11.36-1.89-5.85-4.55-5-7.59-.88C540.08,135.56,541.49,139.59,545.23,144.16Z" transform="translate(-261.79 -107.31)"/><path class="cls-5" d="M571.07,146.12c1.11,3.85,2.47,7.51,6.29,9.74,5.46,2.85,6.76.38,6-4.69C580.77,148.63,576.94,146.75,571.07,146.12Z" transform="translate(-261.79 -107.31)"/><path class="cls-5" d="M601.6,174.05c-1.67-3.64-3.56-7.07-7.67-8.7-5.82-2-6.74.63-5.26,5.54C591.64,173,595.71,174.3,601.6,174.05Z" transform="translate(-261.79 -107.31)"/><path class="cls-5" d="M566,186.64c3.67,1.62,7.35,2.93,11.51,1.43,5.68-2.35,4.63-4.94.27-7.63C574.12,180.82,570.22,182.55,566,186.64Z" transform="translate(-261.79 -107.31)"/><path class="cls-5" d="M615.88,205.79c2.19-3.35,4.08-6.78,3.27-11.13-1.41-6-4.13-5.36-7.49-1.49C611.44,196.81,612.53,200.94,615.88,205.79Z" transform="translate(-261.79 -107.31)"/><path class="cls-5" d="M333.83,189.44c3.9.91,7.77,1.52,11.58-.73,5.15-3.36,3.63-5.71-1.15-7.55C340.76,182.2,337.25,184.63,333.83,189.44Z" transform="translate(-261.79 -107.31)"/><path class="cls-5" d="M298.61,190.43c-2.8-2.87-5.74-5.45-10.15-5.59-6.16.08-6.13,2.87-3.08,7C288.89,192.82,293.15,192.66,298.61,190.43Z" transform="translate(-261.79 -107.31)"/><path class="cls-5" d="M400.48,132.26c-3.13-2.49-6.37-4.68-10.77-4.27-6.1.85-5.72,3.61-2.18,7.31C391.13,135.85,395.35,135.16,400.48,132.26Z" transform="translate(-261.79 -107.31)"/><path class="cls-5" d="M389.39,115.88c-4-.48-7.88-.66-11.42,2-4.75,3.91-3,6.07,2,7.38C383.3,123.83,386.52,121,389.39,115.88Z" transform="translate(-261.79 -107.31)"/><path class="cls-5" d="M410.78,118c4,.67,7.85,1,11.5-1.45,4.93-3.69,3.27-5.93-1.62-7.47C417.24,110.35,413.89,113,410.78,118Z" transform="translate(-261.79 -107.31)"/><path class="cls-5" d="M442.89,121.14c3,2.62,6.17,5,10.58,4.74,6.12-.59,5.87-3.37,2.49-7.22C452.38,118,448.15,118.47,442.89,121.14Z" transform="translate(-261.79 -107.31)"/><path class="cls-5" d="M463.48,119.07c3-1,5.89-2.21,7.53-5.32,2.08-4.43.07-5.38-3.93-4.63C465.15,111.28,463.79,114.39,463.48,119.07Z" transform="translate(-261.79 -107.31)"/><path class="cls-5" d="M491.16,127.86c2.24,2.27,4.58,4.31,8.09,4.42,4.89-.09,4.86-2.31,2.43-5.57C498.89,125.93,495.5,126.07,491.16,127.86Z" transform="translate(-261.79 -107.31)"/><path class="cls-5" d="M498.55,181.67c0-3.19-.28-6.28-2.74-8.8-3.57-3.34-5.09-1.73-5.61,2.31C491.66,177.68,494.2,179.94,498.55,181.67Z" transform="translate(-261.79 -107.31)"/><ellipse class="cls-6" cx="186.37" cy="299.84" rx="185.37" ry="34.87"/><ellipse class="cls-7" cx="181.52" cy="120.74" rx="168.32" ry="22.26"/></svg>