<svg id="Layer_1" data-name="Layer 1" xmlns="http://www.w3.org/2000/svg" viewBox="0 0 513.75 188"><defs><style>.cls-1{fill:#eb2632;}.cls-2{fill:#240747;}</style></defs><circle class="cls-1" cx="227.4" cy="94" r="94"/><path class="cls-2" d="M450.12,279a1.86,1.86,0,1,0,0-3.72h0a1.86,1.86,0,0,0,0,3.72Z" transform="translate(-220.8 -228.66)"/><path class="cls-2" d="M435.23,275.3a1.86,1.86,0,0,0,0-3.72h0a1.86,1.86,0,0,0,0,3.72Z" transform="translate(-220.8 -228.66)"/><path class="cls-2" d="M461.29,271.58a1.86,1.86,0,0,0,0-3.72h0a1.86,1.86,0,0,0,0,3.72Z" transform="translate(-220.8 -228.66)"/><path class="cls-2" d="M476.18,275.3a1.86,1.86,0,0,0,0-3.72h0a1.86,1.86,0,0,0,0,3.72Z" transform="translate(-220.8 -228.66)"/><path class="cls-2" d="M468.73,279a1.86,1.86,0,0,0,0-3.72h0a1.86,1.86,0,0,0,0,3.72Z" transform="translate(-220.8 -228.66)"/><path class="cls-2" d="M446.4,267.86a1.87,1.87,0,0,0,0-3.73h0a1.87,1.87,0,0,0,0,3.73Z" transform="translate(-220.8 -228.66)"/><path class="cls-2" d="M494.73,346H401.67a5.58,5.58,0,0,0-5.58,5.58v3.72a9.32,9.32,0,0,0,9.31,9.31H491a9.32,9.32,0,0,0,9.31-9.31v-3.72A5.59,5.59,0,0,0,494.73,346Zm1.86,9.3a5.59,5.59,0,0,1-5.58,5.59H405.39a5.6,5.6,0,0,1-5.58-5.59v-3.72a1.87,1.87,0,0,1,1.86-1.86h93.06a1.86,1.86,0,0,1,1.86,1.86v3.72Z" transform="translate(-220.8 -228.66)"/><path class="cls-2" d="M401.13,341.76c.89-.88,3.73-3.18,6.13-3.18,1,0,1.49.41,2.4,1.32a6.48,6.48,0,0,0,10.08,0c.91-.91,1.36-1.32,2.41-1.32s1.49.41,2.4,1.32a6.48,6.48,0,0,0,10.08,0c.91-.91,1.36-1.32,2.41-1.32s1.49.41,2.4,1.32a6.48,6.48,0,0,0,10.08,0c.91-.91,1.36-1.32,2.41-1.32s1.49.41,2.4,1.32a6.48,6.48,0,0,0,10.08,0c.91-.91,1.36-1.32,2.41-1.32s1.49.41,2.4,1.32a6.48,6.48,0,0,0,10.08,0c.91-.91,1.36-1.32,2.41-1.32s1.49.41,2.4,1.32a6.67,6.67,0,0,0,5,2.41c4.37,0,8.33-3.84,8.76-4.27a1.86,1.86,0,0,0-2.63-2.64c-.89.89-3.73,3.18-6.13,3.18-1,0-1.5-.4-2.41-1.31a6.46,6.46,0,0,0-10.07,0c-.92.91-1.36,1.31-2.41,1.31s-1.5-.4-2.41-1.31a6.46,6.46,0,0,0-10.07,0c-.92.91-1.36,1.31-2.41,1.31s-1.5-.4-2.41-1.31a6.46,6.46,0,0,0-10.07,0c-.92.91-1.36,1.31-2.41,1.31s-1.5-.4-2.41-1.31a6.46,6.46,0,0,0-10.07,0c-.92.91-1.36,1.31-2.41,1.31s-1.5-.4-2.41-1.31a6.46,6.46,0,0,0-10.07,0c-.92.91-1.36,1.31-2.41,1.31s-1.5-.4-2.41-1.31a6.6,6.6,0,0,0-5-2.41c-4.36,0-8.32,3.83-8.76,4.27a1.86,1.86,0,0,0,2.64,2.63Z" transform="translate(-220.8 -228.66)"/><path class="cls-2" d="M498.46,316.25h-57.7a1.86,1.86,0,0,0,0,3.72h57.7a1.87,1.87,0,0,1,1.86,1.86v3.72a1.87,1.87,0,0,1-1.86,1.87H398a1.87,1.87,0,0,1-1.86-1.87v-3.72A1.86,1.86,0,0,1,398,320H414.7a1.86,1.86,0,0,0,0-3.72H398a5.58,5.58,0,0,0-5.58,5.58v3.72a5.59,5.59,0,0,0,5.58,5.59H498.46a5.59,5.59,0,0,0,5.58-5.59v-3.72A5.58,5.58,0,0,0,498.46,316.25Z" transform="translate(-220.8 -228.66)"/><path class="cls-2" d="M438.9,308.8a1.86,1.86,0,0,0-1.32.55l-9.85,9.85-9.85-9.85a1.86,1.86,0,0,0-1.32-.55H401.67a1.87,1.87,0,0,0,0,3.73h14.12l10.62,10.62a1.88,1.88,0,0,0,2.64,0l10.62-10.62h55.06a1.87,1.87,0,0,0,0-3.73Z" transform="translate(-220.8 -228.66)"/><path class="cls-2" d="M424.06,271.58a1.86,1.86,0,1,0,0-3.72h0a1.86,1.86,0,0,0,0,3.72Z" transform="translate(-220.8 -228.66)"/><path class="cls-2" d="M401.67,305.08h93.06a5.35,5.35,0,0,0,5.58-5.42c.06-.64,1.3-15.88-9.92-28.17-9-9.82-23.17-14.8-42.19-14.8s-33.21,5-42.18,14.8a39.51,39.51,0,0,0-9.93,28A5.4,5.4,0,0,0,401.67,305.08Zm7.1-31.08c8.23-9,21.5-13.59,39.43-13.59S479.36,265,487.6,274c10.13,11.05,9,25.23,9,25.54a1.68,1.68,0,0,1-1.86,1.86H401.67c-1.18,0-1.86-.68-1.87-2C399.79,299.19,398.64,285.09,408.77,274Z" transform="translate(-220.8 -228.66)"/><path class="cls-2" d="M246.67,323.28a23.38,23.38,0,0,1-.75,6.17,14.28,14.28,0,0,1-2.16,4.67,9.66,9.66,0,0,1-3.47,3,10.32,10.32,0,0,1-4.68,1,11.54,11.54,0,0,1-2.42-.24,8.32,8.32,0,0,1-2.15-.8,11.7,11.7,0,0,1-2-1.38,19.25,19.25,0,0,1-2-2v2.8a.84.84,0,0,1-.16.53,1,1,0,0,1-.51.36,3.56,3.56,0,0,1-1,.2q-.6.06-1.47.06c-.59,0-1.09,0-1.48-.06a3.4,3.4,0,0,1-1-.2,1,1,0,0,1-.51-.36,1,1,0,0,1-.14-.53V298.59a.85.85,0,0,1,.17-.51,1.22,1.22,0,0,1,.59-.39,4.85,4.85,0,0,1,1.11-.25,19.4,19.4,0,0,1,3.52,0,4.62,4.62,0,0,1,1.1.25,1.25,1.25,0,0,1,.6.39.85.85,0,0,1,.17.51V312.8a13.94,13.94,0,0,1,2-1.67,12,12,0,0,1,2-1.14,9.07,9.07,0,0,1,2-.65,11.81,11.81,0,0,1,2.19-.2,9.58,9.58,0,0,1,4.84,1.14,9.31,9.31,0,0,1,3.24,3.06,13.53,13.53,0,0,1,1.83,4.51A24.5,24.5,0,0,1,246.67,323.28Zm-7.52.52a20.47,20.47,0,0,0-.24-3.17,9.3,9.3,0,0,0-.85-2.7,5.34,5.34,0,0,0-1.57-1.89,4.05,4.05,0,0,0-2.44-.71,5.16,5.16,0,0,0-1.41.2,5.38,5.38,0,0,0-1.43.7,9.59,9.59,0,0,0-1.51,1.26,18.18,18.18,0,0,0-1.64,1.93V328a15.35,15.35,0,0,0,2.92,3,4.91,4.91,0,0,0,2.93,1,3.94,3.94,0,0,0,2.39-.72,6,6,0,0,0,1.63-1.88,8.74,8.74,0,0,0,.93-2.62A15.42,15.42,0,0,0,239.15,323.8Z" transform="translate(-220.8 -228.66)"/><path class="cls-2" d="M277.55,322.88a2.77,2.77,0,0,1-.59,2,2.1,2.1,0,0,1-1.62.63H259.69a10.6,10.6,0,0,0,.39,3,5.6,5.6,0,0,0,1.24,2.28,5.53,5.53,0,0,0,2.19,1.43,9.5,9.5,0,0,0,3.21.49,17.36,17.36,0,0,0,3.34-.28,22.57,22.57,0,0,0,2.5-.6c.7-.22,1.28-.42,1.74-.61a3.24,3.24,0,0,1,1.12-.27.78.78,0,0,1,.43.1.72.72,0,0,1,.29.36,2.34,2.34,0,0,1,.16.74c0,.31,0,.71,0,1.19s0,.78,0,1.08a6.37,6.37,0,0,1-.09.76,2.15,2.15,0,0,1-.17.54,2.26,2.26,0,0,1-.31.42,3.5,3.5,0,0,1-1,.54,16.41,16.41,0,0,1-2.13.68c-.86.22-1.85.41-3,.58a25.06,25.06,0,0,1-3.57.24,19.1,19.1,0,0,1-6-.86,10.61,10.61,0,0,1-4.3-2.63,10.76,10.76,0,0,1-2.58-4.43,20.74,20.74,0,0,1-.85-6.28,20.09,20.09,0,0,1,.89-6.18,13.06,13.06,0,0,1,2.59-4.67,11.1,11.1,0,0,1,4.14-2.92,15.92,15.92,0,0,1,11-.06,9.83,9.83,0,0,1,3.76,2.64,10.56,10.56,0,0,1,2.16,4,17.34,17.34,0,0,1,.69,5Zm-7-2.07a7.52,7.52,0,0,0-1.23-4.8,4.73,4.73,0,0,0-4.05-1.74,5.18,5.18,0,0,0-2.4.52,4.91,4.91,0,0,0-1.7,1.39,6.45,6.45,0,0,0-1,2.08,10.3,10.3,0,0,0-.42,2.55Z" transform="translate(-220.8 -228.66)"/><path class="cls-2" d="M303,329.22a8.73,8.73,0,0,1-.82,3.86,7.73,7.73,0,0,1-2.32,2.79,10.53,10.53,0,0,1-3.55,1.69,16.85,16.85,0,0,1-4.43.56,17.72,17.72,0,0,1-5.1-.76,12.25,12.25,0,0,1-1.73-.68,4.3,4.3,0,0,1-1-.65,2.06,2.06,0,0,1-.49-.95,8.22,8.22,0,0,1-.17-1.91,11.75,11.75,0,0,1,.06-1.34,2.92,2.92,0,0,1,.17-.81.72.72,0,0,1,.29-.4.81.81,0,0,1,.43-.11,2.2,2.2,0,0,1,.94.36,16.57,16.57,0,0,0,3.68,1.6,9.53,9.53,0,0,0,2.78.38,7.08,7.08,0,0,0,1.75-.2,4.55,4.55,0,0,0,1.32-.58,2.41,2.41,0,0,0,.85-.95,3,3,0,0,0,.29-1.33,2.22,2.22,0,0,0-.53-1.48,4.88,4.88,0,0,0-1.42-1.08,15.45,15.45,0,0,0-2-.86q-1.11-.4-2.28-.9a20,20,0,0,1-2.28-1.12,8.32,8.32,0,0,1-2-1.56,6.86,6.86,0,0,1-1.41-2.21,8.11,8.11,0,0,1-.54-3.12,7.91,7.91,0,0,1,.72-3.38,7.29,7.29,0,0,1,2.08-2.64,9.94,9.94,0,0,1,3.29-1.7,14.85,14.85,0,0,1,4.37-.6,16.35,16.35,0,0,1,2.35.17,19,19,0,0,1,2.06.43,9.66,9.66,0,0,1,1.55.57,5,5,0,0,1,.91.51,1.54,1.54,0,0,1,.39.44,1.7,1.7,0,0,1,.17.51c0,.21.07.46.1.75s0,.67,0,1.11,0,.94,0,1.27a3.23,3.23,0,0,1-.14.78.75.75,0,0,1-.27.39.89.89,0,0,1-.41.1,2,2,0,0,1-.8-.3,13.91,13.91,0,0,0-1.37-.65,16.08,16.08,0,0,0-1.9-.65,9.28,9.28,0,0,0-2.47-.3,6.15,6.15,0,0,0-1.7.2,3.33,3.33,0,0,0-1.18.57,2.41,2.41,0,0,0-.69.88,2.65,2.65,0,0,0-.23,1.08,2.12,2.12,0,0,0,.55,1.5,4.83,4.83,0,0,0,1.44,1.07,15.69,15.69,0,0,0,2,.86c.76.27,1.53.56,2.3.88a22.18,22.18,0,0,1,2.31,1.11,8.58,8.58,0,0,1,2,1.56,7.36,7.36,0,0,1,1.44,2.2A7.79,7.79,0,0,1,303,329.22Z" transform="translate(-220.8 -228.66)"/><path class="cls-2" d="M324.32,333.94a9.45,9.45,0,0,1-.16,1.95,2.17,2.17,0,0,1-.42.95,2.43,2.43,0,0,1-.76.49,7.16,7.16,0,0,1-1.18.37,12.49,12.49,0,0,1-1.47.25,14.17,14.17,0,0,1-1.6.08,11.69,11.69,0,0,1-3.75-.54,6.29,6.29,0,0,1-2.62-1.69,7.05,7.05,0,0,1-1.53-2.87,15.33,15.33,0,0,1-.49-4.09V315.68h-3.08c-.36,0-.64-.23-.83-.68a6.1,6.1,0,0,1-.29-2.26,11.2,11.2,0,0,1,.07-1.41,3.27,3.27,0,0,1,.22-.91.94.94,0,0,1,.36-.47.84.84,0,0,1,.5-.15h3v-5.73a.94.94,0,0,1,.16-.52,1.28,1.28,0,0,1,.58-.39,5,5,0,0,1,1.12-.23,17.13,17.13,0,0,1,1.75-.07,17.43,17.43,0,0,1,1.77.07,4.73,4.73,0,0,1,1.11.23,1.29,1.29,0,0,1,.57.39.82.82,0,0,1,.18.52v5.73h5.58a.88.88,0,0,1,.51.15,1.07,1.07,0,0,1,.36.47,3.31,3.31,0,0,1,.21.91,11,11,0,0,1,.08,1.41A6.32,6.32,0,0,1,324,315a.92.92,0,0,1-.84.68h-5.61v12.07a6,6,0,0,0,.66,3.15A2.57,2.57,0,0,0,320.6,332a4.74,4.74,0,0,0,1-.11,5.36,5.36,0,0,0,.82-.23c.24-.08.44-.16.6-.23a1.42,1.42,0,0,1,.45-.1.64.64,0,0,1,.33.1.67.67,0,0,1,.25.41,6.19,6.19,0,0,1,.15.82A9.4,9.4,0,0,1,324.32,333.94Z" transform="translate(-220.8 -228.66)"/><path class="cls-2" d="M596.48,323.28a23.38,23.38,0,0,1-.75,6.17,14.28,14.28,0,0,1-2.16,4.67,9.66,9.66,0,0,1-3.47,3,10.26,10.26,0,0,1-4.68,1,11.61,11.61,0,0,1-2.42-.24,8.46,8.46,0,0,1-2.15-.8,11.27,11.27,0,0,1-2-1.38,19.25,19.25,0,0,1-2-2v2.8a.9.9,0,0,1-.16.53,1.1,1.1,0,0,1-.52.36,3.48,3.48,0,0,1-1,.2c-.4,0-.89.06-1.46.06s-1.1,0-1.49-.06a3.49,3.49,0,0,1-1-.2.94.94,0,0,1-.5-.36.9.9,0,0,1-.15-.53V298.59a.79.79,0,0,1,.18-.51,1.17,1.17,0,0,1,.59-.39,4.6,4.6,0,0,1,1.11-.25,14.19,14.19,0,0,1,1.75-.08,14.37,14.37,0,0,1,1.76.08,4.85,4.85,0,0,1,1.11.25,1.22,1.22,0,0,1,.59.39.85.85,0,0,1,.17.51V312.8a15.17,15.17,0,0,1,2-1.67,12.41,12.41,0,0,1,2-1.14,9.15,9.15,0,0,1,2-.65,11.81,11.81,0,0,1,2.19-.2,9.6,9.6,0,0,1,4.84,1.14,9.49,9.49,0,0,1,3.24,3.06,14,14,0,0,1,1.83,4.51A25.11,25.11,0,0,1,596.48,323.28Zm-7.52.52a20.47,20.47,0,0,0-.24-3.17,9,9,0,0,0-.85-2.7A5.24,5.24,0,0,0,586.3,316a4,4,0,0,0-2.44-.71,5.16,5.16,0,0,0-1.41.2,5.33,5.33,0,0,0-1.42.7,9.63,9.63,0,0,0-1.52,1.26,20.87,20.87,0,0,0-1.64,1.93V328a15.08,15.08,0,0,0,2.93,3,4.88,4.88,0,0,0,2.92,1,3.92,3.92,0,0,0,2.39-.72,5.86,5.86,0,0,0,1.63-1.88,9,9,0,0,0,.94-2.62A15.41,15.41,0,0,0,589,323.8Z" transform="translate(-220.8 -228.66)"/><path class="cls-2" d="M628,336.48a.92.92,0,0,1-.14.5,1,1,0,0,1-.51.36,3.71,3.71,0,0,1-1,.22,12.21,12.21,0,0,1-1.48.07,12.86,12.86,0,0,1-1.54-.07,3.52,3.52,0,0,1-.94-.22A1,1,0,0,1,622,337a.92.92,0,0,1-.14-.5v-3a16.28,16.28,0,0,1-4.34,3.46,9.7,9.7,0,0,1-4.56,1.15,10.32,10.32,0,0,1-4.45-.86,7.66,7.66,0,0,1-2.91-2.37,9.44,9.44,0,0,1-1.59-3.47,21.2,21.2,0,0,1-.47-4.91V310.78a.84.84,0,0,1,.15-.5,1.11,1.11,0,0,1,.58-.36,5,5,0,0,1,1.12-.22,17.26,17.26,0,0,1,1.75-.07,16.87,16.87,0,0,1,1.75.07,4.8,4.8,0,0,1,1.11.22,1.15,1.15,0,0,1,.59.36.75.75,0,0,1,.18.5V325.3a13.39,13.39,0,0,0,.26,3.08,5.26,5.26,0,0,0,.79,1.83,3.56,3.56,0,0,0,1.35,1.18,4.18,4.18,0,0,0,1.92.42,4.69,4.69,0,0,0,2.78-1,16.6,16.6,0,0,0,3-2.94V310.78a.79.79,0,0,1,.16-.5,1.08,1.08,0,0,1,.57-.36,5,5,0,0,1,1.11-.22,22.16,22.16,0,0,1,3.52,0,4.71,4.71,0,0,1,1.09.22,1.21,1.21,0,0,1,.58.36.8.8,0,0,1,.17.5Z" transform="translate(-220.8 -228.66)"/><path class="cls-2" d="M653.16,313.17c0,.69,0,1.26-.06,1.7a5.1,5.1,0,0,1-.18,1,1,1,0,0,1-.3.52.77.77,0,0,1-.47.14,1.49,1.49,0,0,1-.52-.1l-.65-.21c-.24-.08-.5-.15-.79-.22a4.07,4.07,0,0,0-1-.1,3.22,3.22,0,0,0-1.21.24,5.28,5.28,0,0,0-1.26.77,8.89,8.89,0,0,0-1.35,1.38,24.25,24.25,0,0,0-1.51,2.13v16a.75.75,0,0,1-.18.5,1.15,1.15,0,0,1-.59.36,4.8,4.8,0,0,1-1.11.22,16.87,16.87,0,0,1-1.75.07,17.09,17.09,0,0,1-1.76-.07,5,5,0,0,1-1.11-.22,1.19,1.19,0,0,1-.59-.36.8.8,0,0,1-.17-.5v-25.7a.92.92,0,0,1,.14-.5,1,1,0,0,1,.52-.36,4,4,0,0,1,1-.22,12.1,12.1,0,0,1,1.48-.07,13.12,13.12,0,0,1,1.53.07,3.34,3.34,0,0,1,.93.22,1,1,0,0,1,.48.36.92.92,0,0,1,.14.5V314a21.47,21.47,0,0,1,1.9-2.38,10.78,10.78,0,0,1,1.7-1.48,5.43,5.43,0,0,1,1.62-.77,6.3,6.3,0,0,1,1.61-.21,7.29,7.29,0,0,1,1.7.19,4.65,4.65,0,0,1,.81.23,1.43,1.43,0,0,1,.5.27,1,1,0,0,1,.23.32,2.32,2.32,0,0,1,.13.47,6.86,6.86,0,0,1,.09.91C653.15,311.93,653.16,312.48,653.16,313.17Z" transform="translate(-220.8 -228.66)"/><path class="cls-2" d="M681.45,312.57a5,5,0,0,1-.32,2q-.32.66-.78.66h-3a4.37,4.37,0,0,1,.91,1.57,6.25,6.25,0,0,1,.27,1.84,10.07,10.07,0,0,1-.75,4,7.78,7.78,0,0,1-2.15,2.93,9.34,9.34,0,0,1-3.37,1.82,14.69,14.69,0,0,1-4.39.62,9.08,9.08,0,0,1-2.36-.3,6.13,6.13,0,0,1-1.73-.71,4.25,4.25,0,0,0-.62.89,2.47,2.47,0,0,0-.27,1.15,1.61,1.61,0,0,0,.73,1.37,3.65,3.65,0,0,0,2.06.59l6.25.23a15.62,15.62,0,0,1,3.91.62,8.54,8.54,0,0,1,2.88,1.5,6.5,6.5,0,0,1,1.78,2.32,7.21,7.21,0,0,1,.62,3.08,8.05,8.05,0,0,1-.83,3.59,8.18,8.18,0,0,1-2.51,2.92,12.83,12.83,0,0,1-4.19,2,21.58,21.58,0,0,1-5.89.72,25.87,25.87,0,0,1-5.61-.52,12.07,12.07,0,0,1-3.8-1.44,5.81,5.81,0,0,1-2.16-2.2,5.92,5.92,0,0,1-.68-2.81,6.71,6.71,0,0,1,.25-1.81,6.58,6.58,0,0,1,.72-1.66,8.18,8.18,0,0,1,1.17-1.51,12.85,12.85,0,0,1,1.58-1.39,4.84,4.84,0,0,1-1.92-1.8,4.74,4.74,0,0,1-.67-2.49,6.22,6.22,0,0,1,.78-3.09,9.71,9.71,0,0,1,2-2.53,7.48,7.48,0,0,1-1.61-2.42,9,9,0,0,1-.61-3.51,9.71,9.71,0,0,1,.8-4,8.47,8.47,0,0,1,2.2-3,9.93,9.93,0,0,1,3.37-1.87,13.79,13.79,0,0,1,4.32-.65,17.28,17.28,0,0,1,2.32.15,14.75,14.75,0,0,1,2.06.4h8.15c.33,0,.59.21.8.63A5.48,5.48,0,0,1,681.45,312.57Zm-7.61,26.59a2.24,2.24,0,0,0-1-2,5.49,5.49,0,0,0-2.86-.75l-5.15-.14a7.24,7.24,0,0,0-1.2,1.05,6.15,6.15,0,0,0-.72,1,3,3,0,0,0-.36.9,4.26,4.26,0,0,0-.09.89,2.37,2.37,0,0,0,1.46,2.19,9.12,9.12,0,0,0,4.1.75,10,10,0,0,0,2.77-.33,5.51,5.51,0,0,0,1.82-.88,3.17,3.17,0,0,0,1-1.23A3.44,3.44,0,0,0,673.84,339.16Zm-1.7-20.51a4,4,0,0,0-4.4-4.38,4.57,4.57,0,0,0-1.88.36,3.7,3.7,0,0,0-1.34,1,4,4,0,0,0-.79,1.44,5.71,5.71,0,0,0-.26,1.71,4.19,4.19,0,0,0,1.15,3.1,4.36,4.36,0,0,0,3.2,1.14,4.81,4.81,0,0,0,1.9-.35,3.66,3.66,0,0,0,1.34-.95,4,4,0,0,0,.81-1.4A5.1,5.1,0,0,0,672.14,318.65Z" transform="translate(-220.8 -228.66)"/><path class="cls-2" d="M710.72,322.88a2.82,2.82,0,0,1-.59,2,2.12,2.12,0,0,1-1.63.63H692.86a10.6,10.6,0,0,0,.39,3,5.6,5.6,0,0,0,1.24,2.28,5.39,5.39,0,0,0,2.19,1.43,9.5,9.5,0,0,0,3.21.49,17.36,17.36,0,0,0,3.34-.28,21.82,21.82,0,0,0,2.49-.6c.7-.22,1.28-.42,1.74-.61a3.34,3.34,0,0,1,1.13-.27.81.81,0,0,1,.43.1.77.77,0,0,1,.29.36,2.34,2.34,0,0,1,.16.74c0,.31,0,.71,0,1.19s0,.78,0,1.08-.05.55-.08.76a1.8,1.8,0,0,1-.18.54,2.19,2.19,0,0,1-.3.42,3.83,3.83,0,0,1-1,.54,16.41,16.41,0,0,1-2.13.68c-.87.22-1.86.41-3,.58a25.26,25.26,0,0,1-3.57.24,19.1,19.1,0,0,1-6-.86,10.65,10.65,0,0,1-4.31-2.63,11,11,0,0,1-2.58-4.43,21.06,21.06,0,0,1-.85-6.28,19.78,19.78,0,0,1,.9-6.18,12.91,12.91,0,0,1,2.59-4.67,11.07,11.07,0,0,1,4.13-2.92,14.32,14.32,0,0,1,5.49-1,14.48,14.48,0,0,1,5.52.95,9.83,9.83,0,0,1,3.76,2.64,10.56,10.56,0,0,1,2.16,4,17.34,17.34,0,0,1,.69,5Zm-7-2.07a7.46,7.46,0,0,0-1.22-4.8,4.76,4.76,0,0,0-4.05-1.74,5.25,5.25,0,0,0-2.41.52,5,5,0,0,0-1.7,1.39,6.43,6.43,0,0,0-1,2.08,10.3,10.3,0,0,0-.42,2.55Z" transform="translate(-220.8 -228.66)"/><path class="cls-2" d="M734.55,313.17c0,.69,0,1.26-.06,1.7a6.05,6.05,0,0,1-.17,1,1.1,1.1,0,0,1-.3.52.83.83,0,0,1-.48.14,1.53,1.53,0,0,1-.52-.1l-.65-.21c-.24-.08-.5-.15-.79-.22a4,4,0,0,0-1-.1,3.26,3.26,0,0,0-1.21.24,5.23,5.23,0,0,0-1.25.77,8.91,8.91,0,0,0-1.36,1.38,24.25,24.25,0,0,0-1.51,2.13v16a.8.8,0,0,1-.17.5,1.19,1.19,0,0,1-.59.36,5,5,0,0,1-1.11.22,22.16,22.16,0,0,1-3.52,0,5,5,0,0,1-1.11-.22,1.24,1.24,0,0,1-.59-.36.8.8,0,0,1-.17-.5v-25.7a.84.84,0,0,1,.15-.5.93.93,0,0,1,.51-.36,4.11,4.11,0,0,1,1-.22,12.21,12.21,0,0,1,1.48-.07,12.9,12.9,0,0,1,1.53.07,3.52,3.52,0,0,1,.94.22,1,1,0,0,1,.47.36.84.84,0,0,1,.14.5V314a21.44,21.44,0,0,1,1.91-2.38,10.35,10.35,0,0,1,1.7-1.48,5.27,5.27,0,0,1,1.61-.77,6.36,6.36,0,0,1,1.61-.21,7.83,7.83,0,0,1,.81,0,7.52,7.52,0,0,1,.89.15,4.65,4.65,0,0,1,.81.23,1.35,1.35,0,0,1,.5.27.77.77,0,0,1,.23.32,2.32,2.32,0,0,1,.13.47,6.86,6.86,0,0,1,.09.91C734.54,311.93,734.55,312.48,734.55,313.17Z" transform="translate(-220.8 -228.66)"/></svg>