<svg id="Layer_1" data-name="Layer 1" xmlns="http://www.w3.org/2000/svg" xmlns:xlink="http://www.w3.org/1999/xlink" viewBox="0 0 1920 1313.14"><defs><style>.cls-1{fill:url(#radial-gradient);}.cls-2{fill:url(#radial-gradient-2);}.cls-3{fill:#e52a35;}.cls-4,.cls-8{fill:#241c45;}.cls-5{fill:none;stroke:#eb6057;stroke-miterlimit:10;stroke-width:4px;}.cls-6{font-size:45.99px;font-family:Calibri-BoldItalic, Calibri;font-weight:700;font-style:italic;}.cls-7{fill:#fff;opacity:0.45;}.cls-8{font-size:72px;}.cls-8,.cls-9{font-family:MyriadHebrew-Regular, Myriad Hebrew;}.cls-9{font-size:47px;}</style><radialGradient id="radial-gradient" cx="960" cy="540" r="778.85" gradientUnits="userSpaceOnUse"><stop offset="0" stop-color="#fff"/><stop offset="0.02" stop-color="#fefaf8"/><stop offset="0.14" stop-color="#f9e1d7"/><stop offset="0.26" stop-color="#f6cdbc"/><stop offset="0.4" stop-color="#f3bea6"/><stop offset="0.55" stop-color="#f1b398"/><stop offset="0.73" stop-color="#efac8f"/><stop offset="1" stop-color="#efaa8c"/></radialGradient><radialGradient id="radial-gradient-2" cx="960" cy="540" r="622.34" gradientUnits="userSpaceOnUse"><stop offset="0" stop-color="#efaa8c"/><stop offset="1" stop-color="#fff" stop-opacity="0.1"/></radialGradient></defs><rect class="cls-1" width="1920" height="1080"/><rect class="cls-2" x="192.64" y="108.99" width="1534.72" height="862.02" rx="75.26"/><circle class="cls-3" cx="493.18" cy="224.28" r="83.96"/><path class="cls-4" d="M313.22,224.59a21.16,21.16,0,0,1-.67,5.51,12.75,12.75,0,0,1-1.93,4.17,8.65,8.65,0,0,1-3.1,2.65,9.27,9.27,0,0,1-4.18.92,10.41,10.41,0,0,1-2.16-.21,7.78,7.78,0,0,1-1.92-.71,10.54,10.54,0,0,1-1.8-1.24,18,18,0,0,1-1.82-1.8v2.5a.73.73,0,0,1-.14.47,1,1,0,0,1-.46.32,2.93,2.93,0,0,1-.86.18,12.23,12.23,0,0,1-1.32.06,12,12,0,0,1-1.32-.06,2.85,2.85,0,0,1-.85-.18.85.85,0,0,1-.45-.32.79.79,0,0,1-.13-.47V202.54a.75.75,0,0,1,.15-.46,1.14,1.14,0,0,1,.53-.35,4.07,4.07,0,0,1,1-.22,15.45,15.45,0,0,1,3.14,0,4.07,4.07,0,0,1,1,.22,1.09,1.09,0,0,1,.53.35.75.75,0,0,1,.15.46v12.68a14.32,14.32,0,0,1,1.75-1.49,10.91,10.91,0,0,1,1.75-1,8,8,0,0,1,1.81-.58,10.09,10.09,0,0,1,2-.18,8.63,8.63,0,0,1,4.32,1,8.36,8.36,0,0,1,2.9,2.74,12.14,12.14,0,0,1,1.63,4A21.79,21.79,0,0,1,313.22,224.59Zm-6.72.46a17.44,17.44,0,0,0-.22-2.83,8.08,8.08,0,0,0-.76-2.42,4.64,4.64,0,0,0-1.4-1.68,3.58,3.58,0,0,0-2.17-.63,4.46,4.46,0,0,0-1.26.18,4.69,4.69,0,0,0-1.28.62,9.29,9.29,0,0,0-1.35,1.13,17.47,17.47,0,0,0-1.47,1.72v7.62a13.5,13.5,0,0,0,2.62,2.66,4.35,4.35,0,0,0,2.61.92,3.48,3.48,0,0,0,2.13-.65,5.16,5.16,0,0,0,1.46-1.67,8,8,0,0,0,.83-2.34A13,13,0,0,0,306.5,225.05Z" transform="translate(-0.05 0.25)"/><path class="cls-4" d="M340.81,224.23a2.51,2.51,0,0,1-.53,1.75,1.89,1.89,0,0,1-1.46.57h-14a9.62,9.62,0,0,0,.35,2.66,5,5,0,0,0,1.11,2,4.71,4.71,0,0,0,1.95,1.28,8.46,8.46,0,0,0,2.87.43,16.53,16.53,0,0,0,3-.24,19.08,19.08,0,0,0,2.22-.54q.95-.3,1.56-.54a3,3,0,0,1,1-.25.78.78,0,0,1,.39.09.63.63,0,0,1,.25.33,2.15,2.15,0,0,1,.15.65c0,.29,0,.64,0,1.07s0,.7,0,1a5.5,5.5,0,0,1-.08.69,1.44,1.44,0,0,1-.15.47,1.89,1.89,0,0,1-.27.38,3.24,3.24,0,0,1-.92.49,15.55,15.55,0,0,1-1.9.6,26.52,26.52,0,0,1-2.65.52,23,23,0,0,1-3.19.21,16.8,16.8,0,0,1-5.37-.77,9.47,9.47,0,0,1-3.84-2.34,9.84,9.84,0,0,1-2.31-4,18.84,18.84,0,0,1-.76-5.61,17.9,17.9,0,0,1,.8-5.52,11.57,11.57,0,0,1,2.32-4.17,9.93,9.93,0,0,1,3.69-2.61,14.24,14.24,0,0,1,9.83-.05,8.93,8.93,0,0,1,3.36,2.35,9.52,9.52,0,0,1,1.93,3.56,15.65,15.65,0,0,1,.62,4.48Zm-6.28-1.85a6.69,6.69,0,0,0-1.1-4.29,4.24,4.24,0,0,0-3.61-1.55,4.67,4.67,0,0,0-2.15.46,4.31,4.31,0,0,0-1.52,1.25,5.85,5.85,0,0,0-.93,1.85,9.7,9.7,0,0,0-.37,2.28Z" transform="translate(-0.05 0.25)"/><path class="cls-4" d="M363.5,229.89a7.68,7.68,0,0,1-.73,3.45,7,7,0,0,1-2.07,2.5,9.22,9.22,0,0,1-3.17,1.5,14.66,14.66,0,0,1-4,.5,15,15,0,0,1-2.46-.19,14.34,14.34,0,0,1-2.09-.49,12.07,12.07,0,0,1-1.55-.6,4,4,0,0,1-.9-.58,1.88,1.88,0,0,1-.44-.85,7.34,7.34,0,0,1-.15-1.71c0-.5,0-.9,0-1.2a3.25,3.25,0,0,1,.16-.72.64.64,0,0,1,.25-.36.8.8,0,0,1,.39-.09,2,2,0,0,1,.84.32,15.17,15.17,0,0,0,1.37.71,13.9,13.9,0,0,0,1.92.72,8.61,8.61,0,0,0,2.48.33A6.14,6.14,0,0,0,355,233a4,4,0,0,0,1.18-.51,2.13,2.13,0,0,0,.76-.85,2.63,2.63,0,0,0,.26-1.18,2,2,0,0,0-.48-1.33,4,4,0,0,0-1.26-1,14.85,14.85,0,0,0-1.77-.78c-.66-.24-1.34-.5-2-.79a18.26,18.26,0,0,1-2-1,7.45,7.45,0,0,1-1.77-1.39,6.1,6.1,0,0,1-1.26-2,7.25,7.25,0,0,1-.48-2.78,7.05,7.05,0,0,1,.64-3,6.64,6.64,0,0,1,1.86-2.36,8.68,8.68,0,0,1,2.94-1.51,13.13,13.13,0,0,1,3.9-.54,14.42,14.42,0,0,1,2.1.15,14.1,14.1,0,0,1,1.84.39,8.45,8.45,0,0,1,1.39.5,5.11,5.11,0,0,1,.81.46,1.19,1.19,0,0,1,.34.39,1.77,1.77,0,0,1,.16.46c0,.18.06.4.09.67s0,.6,0,1,0,.84,0,1.13a3.13,3.13,0,0,1-.13.7.64.64,0,0,1-.24.35.74.74,0,0,1-.36.09,1.78,1.78,0,0,1-.73-.27,9.45,9.45,0,0,0-1.22-.58,13.4,13.4,0,0,0-1.7-.58,8.13,8.13,0,0,0-2.2-.27,5.58,5.58,0,0,0-1.51.18,3,3,0,0,0-1.06.51,2.24,2.24,0,0,0-.62.79,2.39,2.39,0,0,0-.2,1,1.91,1.91,0,0,0,.49,1.34,4.31,4.31,0,0,0,1.28,1,13.65,13.65,0,0,0,1.82.77c.67.24,1.36.51,2.06.79a17.51,17.51,0,0,1,2.05,1,7.77,7.77,0,0,1,1.82,1.39,6.47,6.47,0,0,1,1.29,2A7,7,0,0,1,363.5,229.89Z" transform="translate(-0.05 0.25)"/><path class="cls-4" d="M382.57,234.11a7.75,7.75,0,0,1-.14,1.74,1.94,1.94,0,0,1-.37.85,1.9,1.9,0,0,1-.68.43,5.75,5.75,0,0,1-1.06.34,11.52,11.52,0,0,1-1.31.22,13.55,13.55,0,0,1-1.43.08,10.41,10.41,0,0,1-3.34-.49,5.49,5.49,0,0,1-2.34-1.51,6.24,6.24,0,0,1-1.37-2.56,13.56,13.56,0,0,1-.44-3.65V217.8h-2.75c-.33,0-.57-.2-.75-.61a5.67,5.67,0,0,1-.25-2,11.19,11.19,0,0,1,.06-1.26,3.22,3.22,0,0,1,.19-.81.91.91,0,0,1,.33-.42.75.75,0,0,1,.45-.13h2.72v-5.12a.8.8,0,0,1,.15-.47,1,1,0,0,1,.51-.34,3.69,3.69,0,0,1,1-.21q.63-.06,1.56-.06c.64,0,1.16,0,1.58.06a3.52,3.52,0,0,1,1,.21,1.17,1.17,0,0,1,.52.34.8.8,0,0,1,.15.47v5.12h5a.77.77,0,0,1,.45.13,1,1,0,0,1,.32.42,3.22,3.22,0,0,1,.19.81,11.19,11.19,0,0,1,.06,1.26,5.67,5.67,0,0,1-.25,2c-.17.41-.42.61-.75.61h-5v10.78a5.44,5.44,0,0,0,.59,2.82,2.32,2.32,0,0,0,2.11.94,4.31,4.31,0,0,0,.93-.09,5,5,0,0,0,.73-.21l.55-.21a1,1,0,0,1,.39-.09.53.53,0,0,1,.3.09.62.62,0,0,1,.22.36,5.81,5.81,0,0,1,.14.74A9.48,9.48,0,0,1,382.57,234.11Z" transform="translate(-0.05 0.25)"/><path class="cls-4" d="M625.68,224.59a21.16,21.16,0,0,1-.67,5.51,12.75,12.75,0,0,1-1.93,4.17,8.65,8.65,0,0,1-3.1,2.65,9.27,9.27,0,0,1-4.18.92,10.58,10.58,0,0,1-2.17-.21,7.86,7.86,0,0,1-1.91-.71,10.54,10.54,0,0,1-1.8-1.24,17,17,0,0,1-1.82-1.8v2.5a.79.79,0,0,1-.14.47,1,1,0,0,1-.46.32,2.93,2.93,0,0,1-.86.18,12.23,12.23,0,0,1-1.32.06,12,12,0,0,1-1.32-.06,2.85,2.85,0,0,1-.85-.18.85.85,0,0,1-.45-.32.79.79,0,0,1-.13-.47V202.54a.75.75,0,0,1,.15-.46,1.14,1.14,0,0,1,.53-.35,4.07,4.07,0,0,1,1-.22,15.45,15.45,0,0,1,3.14,0,4.07,4.07,0,0,1,1,.22,1.09,1.09,0,0,1,.53.35.75.75,0,0,1,.15.46v12.68a14.32,14.32,0,0,1,1.75-1.49,10.91,10.91,0,0,1,1.75-1,8,8,0,0,1,1.81-.58,10.09,10.09,0,0,1,1.95-.18,8.63,8.63,0,0,1,4.32,1,8.36,8.36,0,0,1,2.9,2.74,12.35,12.35,0,0,1,1.63,4A21.79,21.79,0,0,1,625.68,224.59Zm-6.72.46a17.44,17.44,0,0,0-.22-2.83,8.08,8.08,0,0,0-.76-2.42,4.64,4.64,0,0,0-1.4-1.68,3.58,3.58,0,0,0-2.17-.63,4.46,4.46,0,0,0-1.26.18,4.69,4.69,0,0,0-1.28.62,8.79,8.79,0,0,0-1.35,1.13,17.47,17.47,0,0,0-1.47,1.72v7.62a13.5,13.5,0,0,0,2.62,2.66,4.35,4.35,0,0,0,2.61.92,3.48,3.48,0,0,0,2.13-.65,5.16,5.16,0,0,0,1.46-1.67,8,8,0,0,0,.83-2.34A13,13,0,0,0,619,225.05Z" transform="translate(-0.05 0.25)"/><path class="cls-4" d="M653.83,236.38a.77.77,0,0,1-.13.45.9.9,0,0,1-.45.32,3.6,3.6,0,0,1-.85.19,11.66,11.66,0,0,1-1.32.07,12.29,12.29,0,0,1-1.38-.07,3.51,3.51,0,0,1-.84-.19.93.93,0,0,1-.43-.32.77.77,0,0,1-.13-.45v-2.65a14.49,14.49,0,0,1-3.87,3.08,8.7,8.7,0,0,1-4.08,1,9.08,9.08,0,0,1-4-.77,6.85,6.85,0,0,1-2.6-2.11,8.38,8.38,0,0,1-1.41-3.1,18.69,18.69,0,0,1-.43-4.39V213.42a.77.77,0,0,1,.14-.45,1.11,1.11,0,0,1,.52-.32,4.81,4.81,0,0,1,1-.19c.42,0,.94-.07,1.56-.07s1.16,0,1.57.07a4.83,4.83,0,0,1,1,.19,1.2,1.2,0,0,1,.53.32.72.72,0,0,1,.15.45v13a12.8,12.8,0,0,0,.23,2.76,4.85,4.85,0,0,0,.71,1.63,3.22,3.22,0,0,0,1.21,1.05,3.71,3.71,0,0,0,1.71.38,4.23,4.23,0,0,0,2.48-.9,14.81,14.81,0,0,0,2.67-2.63V213.42a.77.77,0,0,1,.14-.45,1.07,1.07,0,0,1,.51-.32,4.83,4.83,0,0,1,1-.19c.42,0,.94-.07,1.57-.07s1.16,0,1.57.07a4.46,4.46,0,0,1,1,.19,1.22,1.22,0,0,1,.52.32.72.72,0,0,1,.15.45Z" transform="translate(-0.05 0.25)"/><path class="cls-4" d="M676.3,215.56c0,.62,0,1.12,0,1.52a4.88,4.88,0,0,1-.16.92.94.94,0,0,1-.27.47.7.7,0,0,1-.42.13,1.28,1.28,0,0,1-.47-.1l-.58-.19c-.21-.07-.45-.13-.7-.19a3.76,3.76,0,0,0-.85-.09,2.78,2.78,0,0,0-1.08.22,4.25,4.25,0,0,0-1.12.68,8,8,0,0,0-1.21,1.24,20,20,0,0,0-1.35,1.9v14.31a.67.67,0,0,1-.16.45,1.16,1.16,0,0,1-.52.32,4.83,4.83,0,0,1-1,.19c-.42,0-.94.07-1.57.07s-1.16,0-1.57-.07a4.57,4.57,0,0,1-1-.19,1.15,1.15,0,0,1-.53-.32.67.67,0,0,1-.16-.45v-23a.85.85,0,0,1,.13-.45,1,1,0,0,1,.47-.32,3.83,3.83,0,0,1,.86-.19,11.66,11.66,0,0,1,1.32-.07,12.51,12.51,0,0,1,1.37.07,3.1,3.1,0,0,1,.83.19,1,1,0,0,1,.43.32.85.85,0,0,1,.13.45v2.86a17.61,17.61,0,0,1,1.69-2.12,10.15,10.15,0,0,1,1.52-1.33,5,5,0,0,1,1.44-.68,5.48,5.48,0,0,1,1.44-.19,6,6,0,0,1,.72,0,5.74,5.74,0,0,1,.8.12,4.49,4.49,0,0,1,.72.21,1.51,1.51,0,0,1,.45.24.72.72,0,0,1,.21.29,2.85,2.85,0,0,1,.12.42c0,.18,0,.45.07.81S676.3,214.94,676.3,215.56Z" transform="translate(-0.05 0.25)"/><path class="cls-4" d="M701.57,215a4.66,4.66,0,0,1-.28,1.83c-.19.39-.42.59-.7.59h-2.7a3.6,3.6,0,0,1,.81,1.4,5.55,5.55,0,0,1,.25,1.63,9.09,9.09,0,0,1-.67,3.57,7.11,7.11,0,0,1-1.92,2.62,8.54,8.54,0,0,1-3,1.62,13,13,0,0,1-3.93.56,8.14,8.14,0,0,1-2.11-.27,5.29,5.29,0,0,1-1.54-.63,3.57,3.57,0,0,0-.55.79,2.12,2.12,0,0,0-.25,1,1.46,1.46,0,0,0,.66,1.23,3.38,3.38,0,0,0,1.84.52l5.58.21a13.8,13.8,0,0,1,3.49.55,7.54,7.54,0,0,1,2.57,1.34,5.75,5.75,0,0,1,1.6,2.07,6.56,6.56,0,0,1,.55,2.75,7.23,7.23,0,0,1-.74,3.21,7.38,7.38,0,0,1-2.24,2.61,11.65,11.65,0,0,1-3.75,1.75,19.17,19.17,0,0,1-5.26.64,23.3,23.3,0,0,1-5-.46,10.91,10.91,0,0,1-3.39-1.29,5,5,0,0,1-1.93-2,5.17,5.17,0,0,1-.61-2.5,6.09,6.09,0,0,1,.22-1.62,5.9,5.9,0,0,1,.65-1.48,7.33,7.33,0,0,1,1-1.36,11.51,11.51,0,0,1,1.41-1.23,4.27,4.27,0,0,1-2.31-3.83,5.61,5.61,0,0,1,.69-2.77,9,9,0,0,1,1.8-2.25,6.81,6.81,0,0,1-1.44-2.16,8,8,0,0,1-.54-3.14,8.71,8.71,0,0,1,.71-3.59,7.56,7.56,0,0,1,2-2.68,8.55,8.55,0,0,1,3-1.67,12.08,12.08,0,0,1,3.86-.58,15.33,15.33,0,0,1,2.07.13,12.24,12.24,0,0,1,1.84.36h7.28c.29,0,.53.19.71.56A4.85,4.85,0,0,1,701.57,215Zm-6.79,23.75a2,2,0,0,0-.93-1.78,4.83,4.83,0,0,0-2.55-.66l-4.6-.13a6.54,6.54,0,0,0-1.07.93,5.06,5.06,0,0,0-.64.87,2.56,2.56,0,0,0-.33.8,4.07,4.07,0,0,0-.07.79,2.11,2.11,0,0,0,1.3,2,8.18,8.18,0,0,0,3.66.67,8.73,8.73,0,0,0,2.47-.3,4.89,4.89,0,0,0,1.62-.78,2.74,2.74,0,0,0,.88-1.1A3.21,3.21,0,0,0,694.78,238.77Zm-1.52-18.32a3.58,3.58,0,0,0-3.94-3.91,4,4,0,0,0-1.67.32,3.32,3.32,0,0,0-1.2.87,3.69,3.69,0,0,0-.71,1.29,5.2,5.2,0,0,0-.23,1.53,3.74,3.74,0,0,0,1,2.77,3.93,3.93,0,0,0,2.86,1,4.23,4.23,0,0,0,1.7-.31,3.13,3.13,0,0,0,1.19-.84,3.62,3.62,0,0,0,.72-1.25A4.34,4.34,0,0,0,693.26,220.45Z" transform="translate(-0.05 0.25)"/><path class="cls-4" d="M727.72,224.23a2.51,2.51,0,0,1-.53,1.75,1.89,1.89,0,0,1-1.46.57h-14a9.62,9.62,0,0,0,.35,2.66,5,5,0,0,0,1.11,2,4.71,4.71,0,0,0,1.95,1.28A8.46,8.46,0,0,0,718,233a16.53,16.53,0,0,0,3-.24,18.59,18.59,0,0,0,2.22-.54q.94-.3,1.56-.54a3,3,0,0,1,1-.25.75.75,0,0,1,.39.09.7.7,0,0,1,.26.33,2.56,2.56,0,0,1,.14.65c0,.29,0,.64,0,1.07s0,.7,0,1a5.5,5.5,0,0,1-.08.69,1.44,1.44,0,0,1-.15.47,1.89,1.89,0,0,1-.27.38,3.24,3.24,0,0,1-.92.49,15.55,15.55,0,0,1-1.9.6,26.52,26.52,0,0,1-2.65.52,23,23,0,0,1-3.19.21,16.8,16.8,0,0,1-5.37-.77,9.47,9.47,0,0,1-3.84-2.34,9.84,9.84,0,0,1-2.31-4,18.84,18.84,0,0,1-.76-5.61,17.9,17.9,0,0,1,.8-5.52,11.57,11.57,0,0,1,2.32-4.17,9.93,9.93,0,0,1,3.69-2.61,14.24,14.24,0,0,1,9.83-.05,8.93,8.93,0,0,1,3.36,2.35,9.52,9.52,0,0,1,1.93,3.56,15.65,15.65,0,0,1,.62,4.48Zm-6.28-1.85a6.69,6.69,0,0,0-1.1-4.29,4.24,4.24,0,0,0-3.61-1.55,4.7,4.7,0,0,0-2.15.46,4.4,4.4,0,0,0-1.52,1.25,5.63,5.63,0,0,0-.92,1.85,9.21,9.21,0,0,0-.38,2.28Z" transform="translate(-0.05 0.25)"/><path class="cls-4" d="M749,215.56c0,.62,0,1.12,0,1.52a4.88,4.88,0,0,1-.16.92.87.87,0,0,1-.27.47.7.7,0,0,1-.42.13,1.2,1.2,0,0,1-.46-.1l-.58-.19c-.22-.07-.45-.13-.71-.19a3.76,3.76,0,0,0-.85-.09,2.78,2.78,0,0,0-1.08.22,4.42,4.42,0,0,0-1.12.68,8,8,0,0,0-1.21,1.24,20,20,0,0,0-1.35,1.9v14.31a.72.72,0,0,1-.15.45,1.2,1.2,0,0,1-.53.32,4.83,4.83,0,0,1-1,.19c-.42,0-.94.07-1.57.07s-1.16,0-1.57-.07a4.7,4.7,0,0,1-1-.19,1.15,1.15,0,0,1-.53-.32.73.73,0,0,1-.16-.45v-23a.85.85,0,0,1,.13-.45,1,1,0,0,1,.47-.32,3.83,3.83,0,0,1,.86-.19,11.66,11.66,0,0,1,1.32-.07,12.51,12.51,0,0,1,1.37.07,3.1,3.1,0,0,1,.83.19,1,1,0,0,1,.43.32.85.85,0,0,1,.13.45v2.86a16.66,16.66,0,0,1,1.7-2.12,9.65,9.65,0,0,1,1.51-1.33,5,5,0,0,1,1.44-.68,5.55,5.55,0,0,1,1.45-.19,6.24,6.24,0,0,1,.72,0,5.83,5.83,0,0,1,.79.12,4.49,4.49,0,0,1,.72.21,1.74,1.74,0,0,1,.46.24.8.8,0,0,1,.2.29,2.85,2.85,0,0,1,.12.42,6.06,6.06,0,0,1,.07.81Q749,214.63,749,215.56Z" transform="translate(-0.05 0.25)"/><path class="cls-4" d="M494.94,185.06a1.67,1.67,0,1,0,0-3.33h0a1.66,1.66,0,0,0-1.66,1.66A1.68,1.68,0,0,0,494.94,185.06Z" transform="translate(-0.05 0.25)"/><path class="cls-4" d="M481.64,181.73a1.66,1.66,0,1,0,0-3.32h0a1.66,1.66,0,1,0,0,3.32Z" transform="translate(-0.05 0.25)"/><path class="cls-4" d="M504.92,178.41a1.67,1.67,0,0,0,0-3.33h0a1.67,1.67,0,0,0,0,3.33Z" transform="translate(-0.05 0.25)"/><path class="cls-4" d="M518.22,181.73a1.66,1.66,0,0,0,0-3.32h0a1.65,1.65,0,0,0-1.65,1.66A1.66,1.66,0,0,0,518.22,181.73Z" transform="translate(-0.05 0.25)"/><path class="cls-4" d="M511.57,185.06a1.67,1.67,0,0,0,0-3.33h0a1.65,1.65,0,0,0-1.65,1.66A1.67,1.67,0,0,0,511.57,185.06Z" transform="translate(-0.05 0.25)"/><path class="cls-4" d="M491.62,175.08a1.66,1.66,0,1,0,0-3.32h0a1.65,1.65,0,0,0-1.65,1.66A1.66,1.66,0,0,0,491.62,175.08Z" transform="translate(-0.05 0.25)"/><path class="cls-4" d="M534.79,244.91H451.67a5,5,0,0,0-5,5v3.33a8.32,8.32,0,0,0,8.31,8.31h76.48a8.32,8.32,0,0,0,8.31-8.31v-3.33A5,5,0,0,0,534.79,244.91Zm1.67,8.31a5,5,0,0,1-5,5H455a5,5,0,0,1-5-5v-3.33a1.66,1.66,0,0,1,1.66-1.66h83.12a1.67,1.67,0,0,1,1.67,1.66v3.33Z" transform="translate(-0.05 0.25)"/><path class="cls-4" d="M451.18,241.1c.8-.79,3.33-2.84,5.48-2.84.93,0,1.33.36,2.15,1.17a5.78,5.78,0,0,0,9,0c.81-.81,1.21-1.17,2.15-1.17s1.33.36,2.15,1.17a5.78,5.78,0,0,0,9,0c.81-.81,1.21-1.17,2.15-1.17s1.33.36,2.15,1.17a5.78,5.78,0,0,0,9,0c.81-.81,1.21-1.17,2.15-1.17s1.33.36,2.15,1.17a5.78,5.78,0,0,0,9,0c.81-.81,1.21-1.17,2.15-1.17s1.33.36,2.15,1.17a5.78,5.78,0,0,0,9,0c.81-.81,1.21-1.17,2.15-1.17s1.33.36,2.15,1.17a5.91,5.91,0,0,0,4.5,2.15c3.9,0,7.43-3.42,7.82-3.81a1.66,1.66,0,0,0-2.35-2.35c-.79.79-3.33,2.84-5.47,2.84-.94,0-1.34-.36-2.15-1.18a5.79,5.79,0,0,0-9,0c-.81.82-1.21,1.18-2.14,1.18s-1.34-.36-2.15-1.18a5.78,5.78,0,0,0-9,0c-.82.82-1.22,1.18-2.15,1.18s-1.34-.36-2.15-1.18a5.78,5.78,0,0,0-9,0c-.82.82-1.22,1.18-2.15,1.18s-1.34-.36-2.15-1.18a5.78,5.78,0,0,0-9,0c-.82.82-1.22,1.18-2.15,1.18s-1.34-.36-2.15-1.18a5.78,5.78,0,0,0-9,0c-.82.82-1.22,1.18-2.15,1.18s-1.34-.36-2.15-1.18a5.92,5.92,0,0,0-4.5-2.15c-3.9,0-7.44,3.42-7.83,3.81a1.67,1.67,0,0,0,2.35,2.36Z" transform="translate(-0.05 0.25)"/><path class="cls-4" d="M538.12,218.31H486.58a1.66,1.66,0,1,0,0,3.32h51.54a1.67,1.67,0,0,1,1.66,1.66v3.33a1.67,1.67,0,0,1-1.66,1.66H448.34a1.67,1.67,0,0,1-1.66-1.66v-3.33a1.67,1.67,0,0,1,1.66-1.66h15a1.66,1.66,0,1,0,0-3.32h-15a5,5,0,0,0-5,5v3.33a5,5,0,0,0,5,5h89.78a5,5,0,0,0,5-5v-3.33A5,5,0,0,0,538.12,218.31Z" transform="translate(-0.05 0.25)"/><path class="cls-4" d="M484.92,211.66a1.69,1.69,0,0,0-1.18.48l-8.8,8.8-8.8-8.8a1.65,1.65,0,0,0-1.17-.48h-13.3a1.66,1.66,0,0,0,0,3.32h12.61l9.49,9.49a1.65,1.65,0,0,0,2.35,0l9.49-9.49h49.18a1.66,1.66,0,1,0,0-3.32Z" transform="translate(-0.05 0.25)"/><path class="cls-4" d="M471.67,178.41a1.67,1.67,0,0,0,0-3.33h0a1.67,1.67,0,0,0,0,3.33Z" transform="translate(-0.05 0.25)"/><path class="cls-4" d="M451.67,208.33h83.12a4.78,4.78,0,0,0,5-4.84,35.26,35.26,0,0,0-8.86-25.16c-8-8.78-20.69-13.22-37.68-13.22s-29.67,4.44-37.68,13.22a35.32,35.32,0,0,0-8.87,25A4.83,4.83,0,0,0,451.67,208.33ZM458,180.57c7.35-8,19.2-12.14,35.22-12.14s27.83,4.07,35.19,12.1c9.05,9.88,8.05,22.54,8,22.81a1.5,1.5,0,0,1-1.67,1.67H451.67c-1.06,0-1.66-.61-1.67-1.82C450,203.07,449,190.48,458,180.57Z" transform="translate(-0.05 0.25)"/><rect class="cls-5" x="1367.67" y="838.24" width="264.29" height="104.64" rx="7.87"/><text class="cls-6" transform="translate(1458.26 905.97)">back</text><text x="-0.05" y="0.25"/><rect class="cls-7" x="565" y="335.25" width="790" height="469" rx="33.21"/><text class="cls-8" transform="translate(853.73 428.96)">Top list</text><text class="cls-9" transform="translate(779.89 501.45)">#1 some place 100pt<tspan x="11.96" y="56.4">#2 some place 99pt</tspan><tspan x="11.96" y="112.8">#3 some place 95pt</tspan></text></svg>