<svg id="Layer_1" data-name="Layer 1" xmlns="http://www.w3.org/2000/svg" viewBox="0 0 595.28 841.89"><defs><style>.cls-1{fill:#f0aa8d;}.cls-2{fill:#fff;}.cls-3{font-size:40px;font-family:MyriadHebrew-Regular, Myriad Hebrew;}.cls-3,.cls-4{fill:#e62c36;}.cls-5{fill:#251c45;}.cls-6{font-size:42.8px;fill:#1d1d1b;font-family:Calibri-Light, Calibri;font-weight:300;}</style></defs><rect class="cls-1" width="595.28" height="841.89"/><rect class="cls-2" x="104.68" y="251.33" width="385.91" height="539.33"/><text/><text class="cls-3" transform="translate(238.6 354.67)">Top list</text><circle class="cls-4" cx="273.73" cy="137.51" r="76.27"/><path class="cls-5" d="M275.28,102.1a1.51,1.51,0,1,0,0-3h0a1.51,1.51,0,1,0,0,3Z"/><path class="cls-5" d="M263.2,99.08a1.51,1.51,0,0,0,0-3h0a1.51,1.51,0,1,0,0,3Z"/><path class="cls-5" d="M284.34,96.06a1.51,1.51,0,0,0,0-3h0a1.51,1.51,0,0,0,0,3Z"/><path class="cls-5" d="M296.42,99.08a1.51,1.51,0,0,0,0-3h0a1.51,1.51,0,0,0,0,3Z"/><path class="cls-5" d="M290.38,102.1a1.51,1.51,0,0,0,0-3h0a1.51,1.51,0,0,0,0,3Z"/><path class="cls-5" d="M272.26,93a1.51,1.51,0,0,0,0-3h0a1.51,1.51,0,1,0,0,3Z"/><path class="cls-5" d="M311.48,156.47H236a4.53,4.53,0,0,0-4.53,4.53v3a7.56,7.56,0,0,0,7.55,7.55h69.46A7.56,7.56,0,0,0,316,164v-3A4.53,4.53,0,0,0,311.48,156.47ZM313,164a4.54,4.54,0,0,1-4.53,4.53H239a4.54,4.54,0,0,1-4.53-4.53v-3a1.5,1.5,0,0,1,1.51-1.51h75.5A1.51,1.51,0,0,1,313,161v3Z"/><path class="cls-5" d="M235.53,153c.72-.71,3-2.57,5-2.57.84,0,1.21.32,2,1.06a5.24,5.24,0,0,0,8.17,0c.74-.74,1.11-1.06,2-1.06s1.21.32,1.95,1.06a5.24,5.24,0,0,0,8.17,0c.74-.74,1.11-1.06,2-1.06s1.21.32,1.95,1.06a5.25,5.25,0,0,0,8.18,0c.74-.74,1.1-1.06,1.95-1.06s1.21.32,1.95,1.06a5.25,5.25,0,0,0,8.18,0c.74-.74,1.1-1.06,1.95-1.06s1.21.32,1.95,1.06a5.25,5.25,0,0,0,8.18,0c.74-.74,1.1-1.06,2-1.06s1.21.32,1.95,1.06a5.37,5.37,0,0,0,4.09,2c3.54,0,6.75-3.11,7.11-3.47a1.51,1.51,0,0,0-2.13-2.13c-.73.71-3,2.58-5,2.58-.85,0-1.21-.33-1.95-1.07a5.26,5.26,0,0,0-8.18,0c-.74.74-1.1,1.07-1.95,1.07s-1.21-.33-1.95-1.07a5.26,5.26,0,0,0-8.18,0c-.74.74-1.1,1.07-1.95,1.07s-1.22-.33-2-1.07a5.25,5.25,0,0,0-8.17,0c-.74.74-1.11,1.07-2,1.07s-1.22-.33-2-1.07a5.25,5.25,0,0,0-8.17,0c-.74.74-1.11,1.07-1.95,1.07s-1.22-.33-2-1.07a5.25,5.25,0,0,0-8.17,0c-.74.74-1.11,1.07-2,1.07s-1.21-.33-1.95-1.07a5.35,5.35,0,0,0-4.09-2c-3.54,0-6.75,3.1-7.1,3.46a1.51,1.51,0,0,0,2.13,2.13Z"/><path class="cls-5" d="M314.5,132.3H267.69a1.51,1.51,0,0,0,0,3H314.5a1.52,1.52,0,0,1,1.51,1.51v3a1.52,1.52,0,0,1-1.51,1.51H233a1.51,1.51,0,0,1-1.51-1.51v-3a1.5,1.5,0,0,1,1.51-1.51h13.59a1.51,1.51,0,0,0,0-3H233a4.53,4.53,0,0,0-4.53,4.53v3a4.54,4.54,0,0,0,4.53,4.53H314.5a4.54,4.54,0,0,0,4.53-4.53v-3A4.54,4.54,0,0,0,314.5,132.3Z"/><path class="cls-5" d="M266.18,126.26a1.49,1.49,0,0,0-1.07.45l-8,8-8-8a1.47,1.47,0,0,0-1.06-.45H236a1.51,1.51,0,1,0,0,3h11.45l8.62,8.62a1.49,1.49,0,0,0,2.13,0l8.62-8.62h44.68a1.51,1.51,0,0,0,0-3Z"/><path class="cls-5" d="M254.14,96.06a1.51,1.51,0,1,0,0-3h0a1.51,1.51,0,1,0,0,3Z"/><path class="cls-5" d="M236,123.24h75.5a4.33,4.33,0,0,0,4.52-4.39A32.08,32.08,0,0,0,308,96c-7.28-8-18.79-12-34.22-12s-27,4-34.23,12a32,32,0,0,0-8.05,22.72A4.38,4.38,0,0,0,236,123.24ZM241.73,98c6.68-7.32,17.45-11,32-11s25.28,3.7,32,11c8.22,9,7.32,20.48,7.3,20.72a1.36,1.36,0,0,1-1.51,1.51H236c-1,0-1.51-.55-1.52-1.64C234.45,118.46,233.51,107,241.73,98Z"/><path class="cls-5" d="M110.22,138a19.13,19.13,0,0,1-.61,5,11.54,11.54,0,0,1-1.75,3.79,7.84,7.84,0,0,1-2.82,2.41,8.33,8.33,0,0,1-3.8.84,9.36,9.36,0,0,1-2-.2,6.39,6.39,0,0,1-1.74-.64,9.75,9.75,0,0,1-1.64-1.12,14.94,14.94,0,0,1-1.65-1.64v2.27a.69.69,0,0,1-.13.43.81.81,0,0,1-.42.29,2.68,2.68,0,0,1-.78.17c-.33,0-.72,0-1.19,0s-.89,0-1.21,0a2.76,2.76,0,0,1-.77-.17.82.82,0,0,1-.41-.29.83.83,0,0,1-.11-.43V118a.66.66,0,0,1,.14-.42,1,1,0,0,1,.48-.31,3.36,3.36,0,0,1,.9-.2,11.16,11.16,0,0,1,1.42-.07,11.33,11.33,0,0,1,1.43.07,3.56,3.56,0,0,1,.9.2,1.11,1.11,0,0,1,.48.31.73.73,0,0,1,.14.42v11.53a12,12,0,0,1,1.59-1.36,10,10,0,0,1,1.59-.92,6.9,6.9,0,0,1,1.63-.53,9.28,9.28,0,0,1,1.78-.16,7.88,7.88,0,0,1,3.93.92,7.62,7.62,0,0,1,2.62,2.49,11,11,0,0,1,1.49,3.66A20.19,20.19,0,0,1,110.22,138Zm-6.1.42a16.62,16.62,0,0,0-.2-2.57,7.41,7.41,0,0,0-.69-2.19,4.32,4.32,0,0,0-1.28-1.54,3.26,3.26,0,0,0-2-.57,4.11,4.11,0,0,0-1.15.17,4.05,4.05,0,0,0-1.15.56,7.3,7.3,0,0,0-1.23,1,14.06,14.06,0,0,0-1.33,1.56v6.92a12.14,12.14,0,0,0,2.37,2.42,4,4,0,0,0,2.37.83,3.17,3.17,0,0,0,1.94-.59,4.73,4.73,0,0,0,1.32-1.51,7.08,7.08,0,0,0,.76-2.13A12.11,12.11,0,0,0,104.12,138.43Z"/><path class="cls-5" d="M135.28,137.69a2.34,2.34,0,0,1-.48,1.59,1.73,1.73,0,0,1-1.32.51h-12.7a8.7,8.7,0,0,0,.32,2.42,4.67,4.67,0,0,0,1,1.85,4.43,4.43,0,0,0,1.78,1.15,7.46,7.46,0,0,0,2.61.4,14.49,14.49,0,0,0,2.71-.22,18.23,18.23,0,0,0,2-.49c.57-.18,1-.35,1.41-.49a2.66,2.66,0,0,1,.92-.23.65.65,0,0,1,.35.09.58.58,0,0,1,.23.29,2.27,2.27,0,0,1,.13.59c0,.26,0,.58,0,1s0,.64,0,.88,0,.45-.07.62a1.45,1.45,0,0,1-.14.43,1.29,1.29,0,0,1-.25.34,2.72,2.72,0,0,1-.83.45,12.47,12.47,0,0,1-1.73.54,22.73,22.73,0,0,1-2.4.47,20.43,20.43,0,0,1-2.9.2,15.21,15.21,0,0,1-4.87-.7,8.74,8.74,0,0,1-3.5-2.13,8.9,8.9,0,0,1-2.09-3.6,16.85,16.85,0,0,1-.69-5.09,16.31,16.31,0,0,1,.72-5,10.6,10.6,0,0,1,2.11-3.78,9,9,0,0,1,3.35-2.37,12.94,12.94,0,0,1,8.93,0,8,8,0,0,1,3.05,2.14,8.5,8.5,0,0,1,1.75,3.23,14,14,0,0,1,.57,4.07ZM129.57,136a6,6,0,0,0-1-3.89,3.86,3.86,0,0,0-3.29-1.41,4.31,4.31,0,0,0-2,.42,4.11,4.11,0,0,0-1.38,1.13,5.51,5.51,0,0,0-.84,1.68,8.61,8.61,0,0,0-.34,2.07Z"/><path class="cls-5" d="M155.89,142.83a7.06,7.06,0,0,1-.66,3.13,6.28,6.28,0,0,1-1.89,2.27,8.3,8.3,0,0,1-2.87,1.36,14.16,14.16,0,0,1-5.83.28,12.56,12.56,0,0,1-1.91-.44,10,10,0,0,1-1.4-.55,3.78,3.78,0,0,1-.82-.52,1.63,1.63,0,0,1-.39-.78A6.07,6.07,0,0,1,140,146a10.81,10.81,0,0,1,0-1.09,2.78,2.78,0,0,1,.14-.65.62.62,0,0,1,.24-.33.72.72,0,0,1,.35-.08,1.83,1.83,0,0,1,.76.29,12.86,12.86,0,0,0,1.25.64,12.24,12.24,0,0,0,1.74.66,7.76,7.76,0,0,0,2.25.3,5.6,5.6,0,0,0,1.42-.16,3.61,3.61,0,0,0,1.07-.47,1.89,1.89,0,0,0,.69-.77,2.31,2.31,0,0,0,.24-1.07,1.8,1.8,0,0,0-.44-1.21,3.7,3.7,0,0,0-1.14-.87,13.59,13.59,0,0,0-1.61-.71c-.6-.21-1.22-.46-1.85-.72a16.68,16.68,0,0,1-1.85-.91,7.29,7.29,0,0,1-1.61-1.26,5.73,5.73,0,0,1-1.15-1.8,6.83,6.83,0,0,1-.43-2.53,6.35,6.35,0,0,1,.59-2.74,5.93,5.93,0,0,1,1.68-2.14A7.8,7.8,0,0,1,145,127a13,13,0,0,1,5.44-.35,13.18,13.18,0,0,1,1.67.35,8.74,8.74,0,0,1,1.27.45,5.37,5.37,0,0,1,.73.42,1.3,1.3,0,0,1,.32.36,1.38,1.38,0,0,1,.14.42,5.91,5.91,0,0,1,.08.6c0,.24,0,.55,0,.9s0,.77,0,1a2.2,2.2,0,0,1-.12.63.57.57,0,0,1-.22.32.67.67,0,0,1-.33.08,1.58,1.58,0,0,1-.65-.24,11.86,11.86,0,0,0-1.11-.53,14.41,14.41,0,0,0-1.54-.53,7.67,7.67,0,0,0-2-.24,5.13,5.13,0,0,0-1.38.16,2.69,2.69,0,0,0-1,.47,1.9,1.9,0,0,0-.56.71,2,2,0,0,0-.19.88,1.71,1.71,0,0,0,.45,1.21,4,4,0,0,0,1.16.87,14.37,14.37,0,0,0,1.65.7c.62.22,1.24.45,1.87.71a17.79,17.79,0,0,1,1.87.9,7.36,7.36,0,0,1,1.65,1.26,6,6,0,0,1,1.17,1.79A6.41,6.41,0,0,1,155.89,142.83Z"/><path class="cls-5" d="M173.21,146.66a7.89,7.89,0,0,1-.12,1.58,1.74,1.74,0,0,1-.34.77,1.9,1.9,0,0,1-.62.4,5.75,5.75,0,0,1-1,.3,9.83,9.83,0,0,1-1.19.2,11.2,11.2,0,0,1-1.3.07,9.51,9.51,0,0,1-3-.44,5.2,5.2,0,0,1-2.13-1.37,5.65,5.65,0,0,1-1.23-2.33,12,12,0,0,1-.4-3.32V131.84h-2.5c-.3,0-.52-.18-.68-.55a5,5,0,0,1-.23-1.83c0-.45,0-.84.05-1.15a2.67,2.67,0,0,1,.18-.73,1,1,0,0,1,.29-.39.71.71,0,0,1,.41-.12h2.48v-4.65A.72.72,0,0,1,162,122a.93.93,0,0,1,.46-.31,3.58,3.58,0,0,1,.92-.19,13.83,13.83,0,0,1,1.41-.06,14.19,14.19,0,0,1,1.44.06,3.41,3.41,0,0,1,.9.19,1.07,1.07,0,0,1,.47.31.73.73,0,0,1,.14.42v4.65h4.53a.71.71,0,0,1,.41.12.87.87,0,0,1,.29.39,2.67,2.67,0,0,1,.18.73c0,.31.05.7.05,1.15a5,5,0,0,1-.23,1.83c-.16.37-.38.55-.68.55h-4.55v9.8a4.89,4.89,0,0,0,.53,2.56,2.11,2.11,0,0,0,1.92.85A4.28,4.28,0,0,0,171,145a6.94,6.94,0,0,0,.67-.19l.49-.19a1,1,0,0,1,.36-.08.56.56,0,0,1,.27.08.64.64,0,0,1,.2.33,6.68,6.68,0,0,1,.13.67A10.24,10.24,0,0,1,173.21,146.66Z"/><path class="cls-5" d="M394,138a18.71,18.71,0,0,1-.61,5,11.34,11.34,0,0,1-1.75,3.79,7.68,7.68,0,0,1-2.82,2.41,8.32,8.32,0,0,1-3.79.84,9.39,9.39,0,0,1-2-.2,6.39,6.39,0,0,1-1.74-.64,10.17,10.17,0,0,1-1.64-1.12,15.83,15.83,0,0,1-1.64-1.64v2.27a.75.75,0,0,1-.13.43.9.9,0,0,1-.42.29,2.84,2.84,0,0,1-.79.17c-.32,0-.72,0-1.19,0s-.88,0-1.2,0a2.68,2.68,0,0,1-.77-.17.78.78,0,0,1-.41-.29.75.75,0,0,1-.12-.43V118a.73.73,0,0,1,.14-.42,1.11,1.11,0,0,1,.48-.31,3.56,3.56,0,0,1,.9-.2A11.33,11.33,0,0,1,376,117a11.16,11.16,0,0,1,1.42.07,3.36,3.36,0,0,1,.9.2,1,1,0,0,1,.48.31.66.66,0,0,1,.14.42v11.53a12,12,0,0,1,1.59-1.36,10,10,0,0,1,1.59-.92,7,7,0,0,1,1.64-.53,9.18,9.18,0,0,1,1.77-.16,7.85,7.85,0,0,1,3.93.92,7.65,7.65,0,0,1,2.63,2.49,10.94,10.94,0,0,1,1.48,3.66A19.59,19.59,0,0,1,394,138Zm-6.1.42a16.62,16.62,0,0,0-.2-2.57,7.13,7.13,0,0,0-.69-2.19,4.29,4.29,0,0,0-1.27-1.54,3.27,3.27,0,0,0-2-.57,4,4,0,0,0-1.14.17,4.1,4.1,0,0,0-1.16.56,7.72,7.72,0,0,0-1.23,1,15.22,15.22,0,0,0-1.33,1.56v6.92a12.71,12.71,0,0,0,2.37,2.42,4,4,0,0,0,2.38.83,3.19,3.19,0,0,0,1.94-.59,4.73,4.73,0,0,0,1.32-1.51,7.36,7.36,0,0,0,.76-2.13A12.9,12.9,0,0,0,387.93,138.43Z"/><path class="cls-5" d="M419.6,148.72a.81.81,0,0,1-.11.41,1,1,0,0,1-.41.29,2.76,2.76,0,0,1-.77.17,10,10,0,0,1-1.21.06,10.51,10.51,0,0,1-1.25-.06,2.6,2.6,0,0,1-.76-.17.88.88,0,0,1-.39-.29.73.73,0,0,1-.12-.41v-2.41a13.32,13.32,0,0,1-3.52,2.81,7.93,7.93,0,0,1-3.7.93,8.24,8.24,0,0,1-3.61-.7,6.25,6.25,0,0,1-2.37-1.92,7.77,7.77,0,0,1-1.28-2.81,17.23,17.23,0,0,1-.39-4V127.87a.71.71,0,0,1,.13-.41,1,1,0,0,1,.47-.29,4,4,0,0,1,.91-.18,16.83,16.83,0,0,1,2.84,0,4.18,4.18,0,0,1,.9.18,1,1,0,0,1,.48.29.66.66,0,0,1,.14.41v11.78a11.3,11.3,0,0,0,.21,2.5,4.25,4.25,0,0,0,.64,1.48,2.9,2.9,0,0,0,1.1,1,3.35,3.35,0,0,0,1.56.34,3.81,3.81,0,0,0,2.25-.82,13.35,13.35,0,0,0,2.42-2.38V127.87a.65.65,0,0,1,.13-.41.9.9,0,0,1,.47-.29,3.93,3.93,0,0,1,.9-.18,13.77,13.77,0,0,1,1.42-.06,14,14,0,0,1,1.43.06,4,4,0,0,1,.89.18,1,1,0,0,1,.46.29.6.6,0,0,1,.14.41Z"/><path class="cls-5" d="M440,129.81a13.32,13.32,0,0,1-.05,1.38,3.62,3.62,0,0,1-.14.84.83.83,0,0,1-.24.42.61.61,0,0,1-.39.12,1.22,1.22,0,0,1-.42-.09l-.52-.17-.65-.18a3.64,3.64,0,0,0-.77-.08,2.68,2.68,0,0,0-1,.2,4,4,0,0,0-1,.62,7.8,7.8,0,0,0-1.09,1.12,16.8,16.8,0,0,0-1.23,1.73v13a.68.68,0,0,1-.14.41,1.2,1.2,0,0,1-.48.29,3.7,3.7,0,0,1-.9.17,17,17,0,0,1-2.85,0,3.51,3.51,0,0,1-.9-.17,1.07,1.07,0,0,1-.48-.29.68.68,0,0,1-.14-.41V127.87a.71.71,0,0,1,.12-.41.78.78,0,0,1,.42-.29,3.22,3.22,0,0,1,.78-.18,10,10,0,0,1,1.2-.06,10.56,10.56,0,0,1,1.24.06,2.73,2.73,0,0,1,.76.18.87.87,0,0,1,.39.29.78.78,0,0,1,.11.41v2.59a15.64,15.64,0,0,1,1.55-1.92,8.52,8.52,0,0,1,1.38-1.21,4.53,4.53,0,0,1,1.3-.62,5,5,0,0,1,1.31-.17l.66,0a4.91,4.91,0,0,1,.72.12,4.38,4.38,0,0,1,.66.19,1.39,1.39,0,0,1,.41.22.76.76,0,0,1,.18.26,1.77,1.77,0,0,1,.11.38,6.89,6.89,0,0,1,.07.74C440,128.8,440,129.25,440,129.81Z"/><path class="cls-5" d="M463,129.32a4.06,4.06,0,0,1-.26,1.66q-.25.54-.63.54h-2.46a3.2,3.2,0,0,1,.74,1.27,4.87,4.87,0,0,1,.22,1.48,8,8,0,0,1-.61,3.24,6.28,6.28,0,0,1-1.74,2.38,7.63,7.63,0,0,1-2.73,1.48,12.08,12.08,0,0,1-3.57.5,7.46,7.46,0,0,1-1.91-.24,4.83,4.83,0,0,1-1.4-.58,3.37,3.37,0,0,0-.51.73,1.93,1.93,0,0,0-.22.93,1.32,1.32,0,0,0,.6,1.11,3,3,0,0,0,1.67.48l5.07.19a12,12,0,0,1,3.17.5,6.7,6.7,0,0,1,2.33,1.22,5.2,5.2,0,0,1,1.45,1.88,5.85,5.85,0,0,1,.51,2.5,6.42,6.42,0,0,1-2.72,5.28,10.42,10.42,0,0,1-3.4,1.59,17.42,17.42,0,0,1-4.78.58,21.13,21.13,0,0,1-4.54-.42,9.88,9.88,0,0,1-3.09-1.17,4.72,4.72,0,0,1-1.75-1.78,4.8,4.8,0,0,1-.55-2.28,5.38,5.38,0,0,1,.2-1.47,5.73,5.73,0,0,1,.58-1.35,7.24,7.24,0,0,1,.95-1.23,9.61,9.61,0,0,1,1.29-1.12,3.88,3.88,0,0,1-2.11-3.48,5.06,5.06,0,0,1,.63-2.51,8,8,0,0,1,1.64-2,6.13,6.13,0,0,1-1.31-2,7.18,7.18,0,0,1-.49-2.85,7.84,7.84,0,0,1,.64-3.26,6.93,6.93,0,0,1,1.79-2.43,7.72,7.72,0,0,1,2.73-1.52,11.14,11.14,0,0,1,3.51-.53,14.15,14.15,0,0,1,1.88.12,12.7,12.7,0,0,1,1.67.32h6.62c.26,0,.48.18.64.52A4.4,4.4,0,0,1,463,129.32Zm-6.17,21.57a1.8,1.8,0,0,0-.85-1.61,4.31,4.31,0,0,0-2.31-.61l-4.18-.12a6.17,6.17,0,0,0-1,.86,4.71,4.71,0,0,0-.59.78,2.32,2.32,0,0,0-.29.73,3.38,3.38,0,0,0-.07.72,1.92,1.92,0,0,0,1.18,1.78,7.51,7.51,0,0,0,3.33.6,8.35,8.35,0,0,0,2.24-.26,4.35,4.35,0,0,0,1.48-.72,2.51,2.51,0,0,0,.79-1A2.87,2.87,0,0,0,456.8,150.89Zm-1.38-16.64a3.25,3.25,0,0,0-3.58-3.55,3.62,3.62,0,0,0-1.52.29,3,3,0,0,0-1.09.79,3.5,3.5,0,0,0-.64,1.17,4.64,4.64,0,0,0-.21,1.39,3.37,3.37,0,0,0,.94,2.52,3.53,3.53,0,0,0,2.59.92,3.82,3.82,0,0,0,1.54-.28,3.11,3.11,0,0,0,1.09-.77,3.23,3.23,0,0,0,.65-1.14A4,4,0,0,0,455.42,134.25Z"/><path class="cls-5" d="M486.72,137.69a2.29,2.29,0,0,1-.48,1.59,1.73,1.73,0,0,1-1.32.51h-12.7a8.7,8.7,0,0,0,.32,2.42,4.56,4.56,0,0,0,1,1.85,4.32,4.32,0,0,0,1.77,1.15,7.5,7.5,0,0,0,2.61.4,14.49,14.49,0,0,0,2.71-.22,18.23,18.23,0,0,0,2-.49c.57-.18,1-.35,1.41-.49a2.66,2.66,0,0,1,.92-.23.65.65,0,0,1,.35.09.58.58,0,0,1,.23.29,1.92,1.92,0,0,1,.13.59c0,.26,0,.58,0,1s0,.64,0,.88a4.65,4.65,0,0,1-.07.62,1.45,1.45,0,0,1-.14.43,1.29,1.29,0,0,1-.25.34,2.76,2.76,0,0,1-.82.45,13.4,13.4,0,0,1-1.73.54,23.47,23.47,0,0,1-2.41.47,20.43,20.43,0,0,1-2.9.2,15.25,15.25,0,0,1-4.87-.7,8.74,8.74,0,0,1-3.5-2.13,8.9,8.9,0,0,1-2.09-3.6,16.85,16.85,0,0,1-.69-5.09,16,16,0,0,1,.73-5,10.44,10.44,0,0,1,2.1-3.78,9,9,0,0,1,3.35-2.37,12.94,12.94,0,0,1,8.93,0,8,8,0,0,1,3,2.14,8.5,8.5,0,0,1,1.75,3.23,14,14,0,0,1,.57,4.07ZM481,136a6,6,0,0,0-1-3.89,3.84,3.84,0,0,0-3.28-1.41,4.32,4.32,0,0,0-2,.42,4.11,4.11,0,0,0-1.38,1.13,5.51,5.51,0,0,0-.84,1.68,9.14,9.14,0,0,0-.34,2.07Z"/><path class="cls-5" d="M506.05,129.81c0,.56,0,1-.05,1.38a4.26,4.26,0,0,1-.14.84.83.83,0,0,1-.24.42.62.62,0,0,1-.39.12,1.18,1.18,0,0,1-.42-.09l-.53-.17-.64-.18a3.64,3.64,0,0,0-.77-.08,2.64,2.64,0,0,0-1,.2,4,4,0,0,0-1,.62,7.82,7.82,0,0,0-1.1,1.12,18.56,18.56,0,0,0-1.22,1.73v13a.63.63,0,0,1-.15.41,1.08,1.08,0,0,1-.47.29,3.7,3.7,0,0,1-.9.17,17.07,17.07,0,0,1-2.86,0,3.7,3.7,0,0,1-.9-.17,1.08,1.08,0,0,1-.47-.29.62.62,0,0,1-.14-.41V127.87a.7.7,0,0,1,.11-.41.87.87,0,0,1,.42-.29A3.43,3.43,0,0,1,494,127a10,10,0,0,1,1.2-.06,10.56,10.56,0,0,1,1.24.06,2.83,2.83,0,0,1,.76.18.84.84,0,0,1,.38.29.71.71,0,0,1,.12.41v2.59a16.66,16.66,0,0,1,1.54-1.92,9.46,9.46,0,0,1,1.38-1.21,4.58,4.58,0,0,1,1.31-.62,4.91,4.91,0,0,1,1.31-.17l.65,0a4.83,4.83,0,0,1,.73.12,3.93,3.93,0,0,1,.65.19,1.17,1.17,0,0,1,.41.22.67.67,0,0,1,.19.26,1.85,1.85,0,0,1,.1.38,5,5,0,0,1,.07.74C506,128.8,506.05,129.25,506.05,129.81Z"/><text class="cls-6" transform="translate(134.54 438.13) scale(0.94 1)">1# someplace 100pt<tspan x="10.85" y="51.36">2# someplace 99pt</tspan><tspan x="10.85" y="102.71">3# someplace 95pt</tspan></text></svg>